<svg data-v-fde0c5aa="" xmlns="http://www.w3.org/2000/svg" viewBox="0 0 300 300" class="iconLeft"><!----><defs data-v-fde0c5aa=""><!----></defs><rect data-v-fde0c5aa="" fill="transparent" x="0" y="0" width="300px" height="300px" class="logo-background-square"></rect><defs data-v-fde0c5aa=""><!----></defs><g data-v-fde0c5aa="" id="6b64d48a-fe67-41d1-8879-e4b3a9eddca5" fill="#000000" transform="matrix(3.7642373656827255,0,0,3.7642373656827255,144.92726487983316,129.76722573001757)"><path d="M0.25 10.19L2.12 0.56L6.11 0.56L6.11 0.56Q7.01 0.56 7.66 0.71L7.66 0.71L7.66 0.71Q8.31 0.86 8.74 1.15L8.74 1.15L8.74 1.15Q9.17 1.44 9.38 1.85L9.38 1.85L9.38 1.85Q9.59 2.26 9.59 2.79L9.59 2.79L9.59 2.79Q9.59 3.29 9.43 3.68L9.43 3.68L9.43 3.68Q9.28 4.07 8.99 4.36L8.99 4.36L8.99 4.36Q8.70 4.66 8.29 4.85L8.29 4.85L8.29 4.85Q7.88 5.04 7.38 5.15L7.38 5.15L7.38 5.15Q7.86 5.23 8.23 5.42L8.23 5.42L8.23 5.42Q8.60 5.61 8.85 5.89L8.85 5.89L8.85 5.89Q9.10 6.17 9.23 6.51L9.23 6.51L9.23 6.51Q9.35 6.86 9.35 7.25L9.35 7.25L9.35 7.25Q9.35 8.10 9.01 8.67L9.01 8.67L9.01 8.67Q8.66 9.24 8.08 9.57L8.08 9.57L8.08 9.57Q7.49 9.91 6.71 10.05L6.71 10.05L6.71 10.05Q5.93 10.19 5.07 10.19L5.07 10.19L0.25 10.19ZM3.83 2.06L3.38 4.44L5.39 4.44L5.39 4.44Q5.98 4.44 6.40 4.37L6.40 4.37L6.40 4.37Q6.82 4.29 7.09 4.13L7.09 4.13L7.09 4.13Q7.35 3.96 7.47 3.71L7.47 3.71L7.47 3.71Q7.59 3.45 7.59 3.10L7.59 3.10L7.59 3.10Q7.59 2.80 7.48 2.59L7.48 2.59L7.48 2.59Q7.36 2.39 7.15 2.27L7.15 2.27L7.15 2.27Q6.93 2.15 6.61 2.11L6.61 2.11L6.61 2.11Q6.30 2.06 5.89 2.06L5.89 2.06L3.83 2.06ZM3.09 5.93L2.55 8.70L4.79 8.70L4.79 8.70Q5.44 8.70 5.92 8.63L5.92 8.63L5.92 8.63Q6.40 8.56 6.71 8.39L6.71 8.39L6.71 8.39Q7.02 8.22 7.17 7.93L7.17 7.93L7.17 7.93Q7.33 7.64 7.33 7.21L7.33 7.21L7.33 7.21Q7.33 6.59 6.86 6.26L6.86 6.26L6.86 6.26Q6.40 5.93 5.35 5.93L5.35 5.93L3.09 5.93ZM18.66 2.12L13.94 2.12L13.36 5.10L17.92 5.10L17.62 6.66L13.06 6.66L12.37 10.19L10.36 10.19L12.22 0.56L18.96 0.56L18.66 2.12ZM28.70 10.19L26.91 10.19L28.08 4.15L28.08 4.15Q28.16 3.77 28.25 3.39L28.25 3.39L28.25 3.39Q28.33 3.00 28.41 2.68L28.41 2.68L28.41 2.68Q28.50 2.30 28.59 1.95L28.59 1.95L28.59 1.95Q28.34 2.48 28.12 2.98L28.12 2.98L28.12 2.98Q28.02 3.19 27.91 3.42L27.91 3.42L27.91 3.42Q27.81 3.64 27.71 3.86L27.71 3.86L27.71 3.86Q27.60 4.07 27.51 4.27L27.51 4.27L27.51 4.27Q27.42 4.46 27.34 4.61L27.34 4.61L24.52 10.19L23.08 10.19L22.44 4.59L22.44 4.59Q22.43 4.46 22.41 4.28L22.41 4.28L22.41 4.28Q22.39 4.10 22.36 3.89L22.36 3.89L22.36 3.89Q22.34 3.68 22.32 3.45L22.32 3.45L22.32 3.45Q22.29 3.23 22.27 3.01L22.27 3.01L22.27 3.01Q22.22 2.51 22.17 1.95L22.17 1.95L22.17 1.95Q22.12 2.37 22.07 2.77L22.07 2.77L22.07 2.77Q22.05 2.94 22.03 3.12L22.03 3.12L22.03 3.12Q22.00 3.31 21.98 3.49L21.98 3.49L21.98 3.49Q21.96 3.66 21.93 3.83L21.93 3.83L21.93 3.83Q21.90 3.99 21.88 4.13L21.88 4.13L20.70 10.19L18.91 10.19L20.78 0.56L23.48 0.56L24.08 5.95L24.08 5.95Q24.11 6.16 24.14 6.48L24.14 6.48L24.14 6.48Q24.17 6.79 24.19 7.10L24.19 7.10L24.19 7.10Q24.22 7.46 24.25 7.83L24.25 7.83L24.25 7.83Q24.42 7.46 24.59 7.11L24.59 7.11L24.59 7.11Q24.73 6.81 24.88 6.50L24.88 6.50L24.88 6.50Q25.03 6.19 25.14 5.98L25.14 5.98L27.88 0.56L30.57 0.56L28.70 10.19Z"></path></g><defs data-v-fde0c5aa=""><linearGradient data-v-fde0c5aa="" gradientTransform="rotate(25)" id="cb32555f-8125-49a5-be02-d584b94d23e0" x1="0%" y1="0%" x2="100%" y2="0%"><stop data-v-fde0c5aa="" offset="0%" stop-color="#E90DCA" stop-opacity="1"></stop><stop data-v-fde0c5aa="" offset="100%" stop-color="#1536F1" stop-opacity="1"></stop></linearGradient></defs><g data-v-fde0c5aa="" id="26ac6851-72dd-453b-816c-02689b2c7788" stroke="none" fill="url(#cb32555f-8125-49a5-be02-d584b94d23e0)" transform="matrix(2.9021351319141826,0,0,2.9021351319141826,40,103.56583788937309)"><path d="M16 19.586l7.496-12.954H8.504zM7.496 12.414L0 25.368h14.992zM24.504 12.414l-7.496 12.954H32z"></path></g><!----></svg>